<?xml version="1.0" standalone="no"?>
<svg viewBox="0 0 200 200" xmlns="http://www.w3.org/2000/svg">
  <path fill="#64C9CF" d="M40.3,-63.9C54,-54,68.1,-45.7,74.4,-33.5C80.8,-21.2,79.6,-5,77.7,11.4C75.7,27.9,73.1,44.5,63.2,53.3C53.3,62,36,63,19.7,68.5C3.3,74,-12.2,84.1,-24.9,81.8C-37.7,79.5,-47.8,64.8,-58.5,51.3C-69.2,37.8,-80.5,25.5,-80,13C-79.5,0.5,-67.2,-12.3,-60.2,-27.5C-53.3,-42.7,-51.7,-60.3,-42.6,-72.3C-33.4,-84.3,-16.7,-90.6,-1.7,-88C13.3,-85.3,26.7,-73.8,40.3,-63.9Z" transform="translate(100 100)" />
</svg>
