<svg id="Capa_1" height="40" viewBox="0 0 512 512" width="40" xmlns="http://www.w3.org/2000/svg"><g><g><path d="m431.772 12.38h-351.544c-40.167 0-72.728 32.562-72.728 72.728v270.042c0 40.167 32.561 72.728 72.728 72.728h42.508v44.278c0 20.69 22.042 33.926 40.305 24.201l128.608-68.48h140.123c40.167 0 72.728-32.561 72.728-72.728v-270.041c0-40.166-32.561-72.728-72.728-72.728z" fill="#f9f6f9"/><path d="m35.636 85.104v270.046c0 40.165 32.567 72.722 72.732 72.722h-28.146c-40.165 0-72.722-32.557-72.722-72.722v-270.046c0-40.165 32.557-72.732 72.722-72.732h28.146c-40.165 0-72.732 32.567-72.732 72.732z" fill="#DF711B"/><path d="m164.267 495.702-1.225.647c-18.264 9.725-40.312-3.51-40.312-24.195v-44.282h28.146v44.282c0 10.382 5.548 18.892 13.391 23.548z" fill="#DF711B"/><g><g><path d="m172.893 321.081c-57.28 0-103.881-46.601-103.881-103.88s46.601-103.88 103.881-103.88c20.813 0 40.902 6.139 58.094 17.753 9.67 6.532 12.214 19.667 5.682 29.337-6.533 9.669-19.665 12.215-29.337 5.681-10.18-6.877-22.089-10.511-34.438-10.511-33.977 0-61.621 27.643-61.621 61.62s27.643 61.62 61.621 61.62c12.555 0 23.107-3.728 31.361-11.08 1.613-1.435 3.153-3.026 4.581-4.728 7.499-8.941 20.827-10.111 29.769-2.611 8.941 7.499 10.11 20.827 2.611 29.768-2.74 3.268-5.72 6.34-8.854 9.131-15.999 14.248-36.563 21.78-59.469 21.78z" fill="#DF711B"/></g><g><path d="m369.725 321.081c-57.28 0-103.881-46.601-103.881-103.88s46.601-103.88 103.881-103.88c20.813 0 40.902 6.139 58.094 17.753 9.671 6.532 12.214 19.667 5.682 29.337-6.533 9.669-19.668 12.215-29.337 5.681-10.18-6.877-22.089-10.511-34.438-10.511-33.977 0-61.621 27.643-61.621 61.62s27.643 61.62 61.621 61.62c12.555 0 23.107-3.728 31.361-11.08 1.613-1.435 3.153-3.026 4.581-4.728 7.5-8.941 20.826-10.111 29.769-2.611 8.941 7.499 10.11 20.827 2.611 29.768-2.74 3.268-5.72 6.34-8.854 9.131-15.999 14.248-36.563 21.78-59.469 21.78z" fill="#DF711B"/></g></g><g><g><path d="m181.341 320.736c-2.774.235-5.588.353-8.441.353-57.282 0-103.887-46.605-103.887-103.887s46.606-103.878 103.887-103.878c2.853 0 5.696.118 8.509.343-53.35 4.304-95.437 49.096-95.437 103.534 0 54.419 42.048 99.201 95.369 103.535z" fill="#DF711B"/></g><g><path d="m378.175 320.736c-2.774.235-5.598.353-8.45.353-57.272 0-103.878-46.605-103.878-103.887s46.606-103.878 103.878-103.878c2.853 0 5.696.118 8.519.343-53.35 4.304-95.447 49.096-95.447 103.534 0 54.419 42.057 99.201 95.378 103.535z" fill="#DF711B"/></g></g></g><g><path d="m150.146 507.118c-6.202 0-12.391-1.68-17.961-5.025-10.61-6.372-16.944-17.564-16.944-29.94v-36.77h-35.011c-44.239 0-80.23-35.991-80.23-80.23v-270.041c0-44.239 35.991-80.23 80.23-80.23h351.54c44.239 0 80.23 35.991 80.23 80.23v270.04c0 44.239-35.991 80.23-80.23 80.23h-29.86c-4.143 0-7.5-3.358-7.5-7.5s3.357-7.5 7.5-7.5h29.859c35.968 0 65.23-29.262 65.23-65.23v-270.04c0-35.968-29.263-65.23-65.23-65.23h-351.539c-35.967 0-65.23 29.263-65.23 65.23v270.04c0 35.968 29.263 65.23 65.23 65.23h42.51c4.143 0 7.5 3.358 7.5 7.5v44.27c0 7.061 3.614 13.446 9.667 17.081 6.05 3.633 13.382 3.825 19.608.508l128.61-68.479c1.085-.578 2.295-.88 3.524-.88h80.26c4.143 0 7.5 3.358 7.5 7.5s-3.357 7.5-7.5 7.5h-78.388l-126.958 67.6c-5.184 2.761-10.807 4.136-16.417 4.136z"/><g><g><path d="m172.89 328.582c-61.415 0-111.38-49.965-111.38-111.38 0-26.064 9.231-51.432 25.992-71.428 2.661-3.174 7.391-3.591 10.566-.93 3.174 2.661 3.591 7.391.93 10.565-14.502 17.3-22.488 39.245-22.488 61.792 0 53.144 43.235 96.38 96.38 96.38 21.04 0 39.879-6.875 54.482-19.88 2.841-2.532 5.565-5.344 8.097-8.355 2.335-2.783 3.448-6.316 3.13-9.943-.318-3.628-2.029-6.915-4.819-9.254-2.788-2.34-6.328-3.453-9.949-3.135-3.628.318-6.914 2.029-9.254 4.819-1.645 1.969-3.445 3.829-5.344 5.516-9.661 8.607-21.891 12.974-36.343 12.974-38.113 0-69.12-31.007-69.12-69.12s31.007-69.12 69.12-69.12c13.86 0 27.222 4.079 38.64 11.796 6.229 4.207 14.721 2.562 18.925-3.664 2.038-3.018 2.779-6.649 2.088-10.226-.692-3.575-2.733-6.665-5.749-8.701-15.95-10.772-34.589-16.466-53.903-16.466-19.017 0-37.417 5.558-53.214 16.073-3.451 2.295-8.104 1.36-10.399-2.087s-1.36-8.104 2.087-10.399c18.268-12.16 39.543-18.587 61.526-18.587 22.317 0 43.86 6.582 62.298 19.035 6.337 4.279 10.628 10.772 12.081 18.283 1.453 7.508-.104 15.133-4.383 21.47-8.834 13.081-26.666 16.534-39.753 7.699-8.932-6.037-19.389-9.226-30.243-9.226-29.842 0-54.12 24.278-54.12 54.12s24.278 54.12 54.12 54.12c10.661 0 19.534-3.088 26.371-9.18 1.352-1.201 2.633-2.524 3.812-3.938 4.926-5.871 11.828-9.465 19.446-10.134 7.627-.668 15.043 1.671 20.9 6.586 5.858 4.915 9.453 11.817 10.121 19.436.669 7.619-1.67 15.042-6.585 20.9-2.998 3.566-6.228 6.897-9.605 9.908-17.396 15.493-39.685 23.681-64.461 23.681z"/></g><g><path d="m369.726 328.581c-61.416 0-111.381-49.965-111.381-111.38 0-61.416 49.965-111.38 111.381-111.38 22.315 0 43.856 6.583 62.292 19.039 6.337 4.28 10.628 10.773 12.082 18.281s-.103 15.132-4.384 21.469-10.773 10.627-18.281 12.082c-7.505 1.454-15.134-.102-21.47-4.385-8.935-6.035-19.392-9.225-30.239-9.225-29.843 0-54.121 24.278-54.121 54.12s24.278 54.12 54.121 54.12c10.66 0 19.533-3.089 26.372-9.181 1.344-1.196 2.629-2.523 3.821-3.946 10.147-12.095 28.24-13.683 40.336-3.54 12.096 10.146 13.683 28.239 3.538 40.334-2.972 3.543-6.206 6.878-9.612 9.913-17.393 15.491-39.682 23.679-64.455 23.679zm0-207.76c-53.145 0-96.381 43.236-96.381 96.38s43.236 96.38 96.381 96.38c21.037 0 39.876-6.875 54.479-19.881 2.866-2.553 5.59-5.362 8.097-8.351 4.829-5.758 4.073-14.372-1.685-19.202-5.759-4.828-14.373-4.073-19.203 1.685-1.658 1.979-3.456 3.833-5.341 5.511-9.667 8.611-21.896 12.978-36.347 12.978-38.113 0-69.121-31.007-69.121-69.12s31.008-69.12 69.121-69.12c13.851 0 27.211 4.079 38.637 11.796 3.017 2.039 6.646 2.781 10.22 2.087 3.574-.692 6.666-2.735 8.704-5.752s2.779-6.646 2.087-10.221-2.734-6.665-5.752-8.703c-15.948-10.773-34.585-16.467-53.896-16.467z"/></g></g></g></g></svg>